<svg width="32" height="32" viewBox="0 0 32 32" fill="none" xmlns="http://www.w3.org/2000/svg">
<path d="M12.3333 29.3332L11.8 25.0665C11.5111 24.9554 11.2389 24.8221 10.9833 24.6665C10.7278 24.5109 10.4778 24.3443 10.2333 24.1665L6.26664 25.8332L2.59998 19.4998L6.03331 16.8998C6.01109 16.7443 5.99998 16.5943 5.99998 16.4498V15.5498C5.99998 15.4054 6.01109 15.2554 6.03331 15.0998L2.59998 12.4998L6.26664 6.1665L10.2333 7.83317C10.4778 7.65539 10.7333 7.48873 11 7.33317C11.2666 7.17761 11.5333 7.04428 11.8 6.93317L12.3333 2.6665H19.6666L20.2 6.93317C20.4889 7.04428 20.7611 7.17761 21.0166 7.33317C21.2722 7.48873 21.5222 7.65539 21.7666 7.83317L25.7333 6.1665L29.4 12.4998L25.9666 15.0998C25.9889 15.2554 26 15.4054 26 15.5498V16.4498C26 16.5943 25.9778 16.7443 25.9333 16.8998L29.3666 19.4998L25.7 25.8332L21.7666 24.1665C21.5222 24.3443 21.2666 24.5109 21 24.6665C20.7333 24.8221 20.4666 24.9554 20.2 25.0665L19.6666 29.3332H12.3333ZM16.0666 20.6665C17.3555 20.6665 18.4555 20.2109 19.3666 19.2998C20.2778 18.3887 20.7333 17.2887 20.7333 15.9998C20.7333 14.7109 20.2778 13.6109 19.3666 12.6998C18.4555 11.7887 17.3555 11.3332 16.0666 11.3332C14.7555 11.3332 13.65 11.7887 12.75 12.6998C11.85 13.6109 11.4 14.7109 11.4 15.9998C11.4 17.2887 11.85 18.3887 12.75 19.2998C13.65 20.2109 14.7555 20.6665 16.0666 20.6665Z" fill="#202020" fill-opacity="0.6"/>
</svg>
