<?xml version="1.0" encoding="UTF-8"?>
<!DOCTYPE svg PUBLIC "-//W3C//DTD SVG 1.1//EN" "http://www.w3.org/Graphics/SVG/1.1/DTD/svg11.dtd">
<svg xmlns="http://www.w3.org/2000/svg" version="1.1" width="120px" height="116px" style="shape-rendering:geometricPrecision; text-rendering:geometricPrecision; image-rendering:optimizeQuality; fill-rule:evenodd; clip-rule:evenodd" xmlns:xlink="http://www.w3.org/1999/xlink">
<g><path style="opacity:1" fill="#439466" d="M 18.5,0.5 C 27.481,1.52549 35.8144,4.35882 43.5,9C 48.2072,13.1063 51.0405,18.273 52,24.5C 52.3333,22.1667 52.6667,19.8333 53,17.5C 54.4886,15.6682 56.322,14.8348 58.5,15C 58.9809,20.7569 59.1475,26.5902 59,32.5C 72.3105,20.3803 85.4772,20.547 98.5,33C 109.2,45.6118 107.2,48.2785 92.5,41C 79.7976,38.2303 67.4643,39.2303 55.5,44C 49.0308,47.7374 42.6975,51.7374 36.5,56C 25.2294,61.4762 15.0627,59.9762 6,51.5C 4.33463,42.8366 7.5013,36.6699 15.5,33C 20.0642,31.6281 24.7309,30.7948 29.5,30.5C 37.2615,31.3579 44.9282,32.6913 52.5,34.5C 52.5,33.5 52.5,32.5 52.5,31.5C 38.7693,31.7247 28.936,25.7247 23,13.5C 21.433,9.11769 19.933,4.78436 18.5,0.5 Z"/></g>
<g><path style="opacity:1" fill="#419162" d="M 65.5,43.5 C 78.5826,41.8132 90.916,43.9799 102.5,50C 108.9,55.6271 110.066,62.1271 106,69.5C 100.879,72.3893 95.3792,73.2227 89.5,72C 80.8808,70.3143 72.2141,69.1476 63.5,68.5C 53.6931,69.9331 44.0265,72.0998 34.5,75C 20.6792,78.0899 11.0125,73.2566 5.5,60.5C 6,60.1667 6.5,59.8333 7,59.5C 16.663,65.9899 26.4964,66.1565 36.5,60C 45.6432,53.4327 55.3099,47.9327 65.5,43.5 Z"/></g>
<g><path style="opacity:0.999" fill="#35895c" d="M 56.5,72.5 C 69.4091,72.515 82.2425,73.515 95,75.5C 98.5343,75.3648 102.034,75.0315 105.5,74.5C 101.955,91.5385 91.6219,98.3718 74.5,95C 61.516,92.2421 48.516,92.4088 35.5,95.5C 21.7908,94.4863 12.7908,87.4863 8.5,74.5C 9,74.1667 9.5,73.8333 10,73.5C 20.1885,80.0636 31.0218,81.2302 42.5,77C 47.2855,75.4784 51.9522,73.9784 56.5,72.5 Z"/></g>
<g><path style="opacity:0.998" fill="#3a8b5e" d="M 16.5,94.5 C 17.0968,93.8614 17.9302,93.528 19,93.5C 22.184,94.8407 25.3506,96.3407 28.5,98C 38.5548,98.6537 48.5548,98.1537 58.5,96.5C 66.658,97.5326 74.8247,98.5326 83,99.5C 86.359,98.9403 89.6924,98.2736 93,97.5C 93.5,97.8333 94,98.1667 94.5,98.5C 86.1319,112.293 75.1319,114.96 61.5,106.5C 53.8131,113.082 45.1464,114.582 35.5,111C 28.0618,106.726 21.7285,101.226 16.5,94.5 Z"/></g>
</svg>
