<?xml version="1.0" encoding="UTF-8"?>
<!DOCTYPE svg PUBLIC "-//W3C//DTD SVG 1.1//EN" "http://www.w3.org/Graphics/SVG/1.1/DTD/svg11.dtd">
<svg xmlns="http://www.w3.org/2000/svg" version="1.1" width="103px" height="116px" style="shape-rendering:geometricPrecision; text-rendering:geometricPrecision; image-rendering:optimizeQuality; fill-rule:evenodd; clip-rule:evenodd" xmlns:xlink="http://www.w3.org/1999/xlink">
<g><path style="opacity:1" fill="#89dbb1" d="M 43.5,20.5 C 43.7852,22.288 43.4519,23.9547 42.5,25.5C 37.279,25.4915 31.9457,25.3249 26.5,25C 25.7562,23.9614 24.7562,23.4614 23.5,23.5C 19.0423,18.7639 15.709,13.2639 13.5,7C 17.2049,2.2439 21.8715,1.2439 27.5,4C 35.7732,6.77141 41.1066,12.2714 43.5,20.5 Z"/></g>
<g><path style="opacity:1" fill="#6bbc91" d="M 43.5,46.5 C 38.9816,45.8029 34.4816,45.4696 30,45.5C 19.9152,46.5886 9.74855,47.2553 -0.5,47.5C -0.5,45.1667 -0.5,42.8333 -0.5,40.5C 3.85906,34.4842 9.85906,31.3176 17.5,31C 26.996,30.7487 36.3293,31.9154 45.5,34.5C 45.5,33.5 45.5,32.5 45.5,31.5C 36.9671,31.7703 29.6338,29.1036 23.5,23.5C 24.7562,23.4614 25.7562,23.9614 26.5,25C 31.9457,25.3249 37.279,25.4915 42.5,25.5C 43.4519,23.9547 43.7852,22.288 43.5,20.5C 44.29,21.6085 44.79,22.9419 45,24.5C 44.3038,19.6354 46.1371,16.3021 50.5,14.5C 51.086,14.7093 51.586,15.0426 52,15.5C 51.9269,21.1624 51.9269,26.829 52,32.5C 65.6223,20.2609 78.9557,20.5942 92,33.5C 94.793,36.4532 96.9597,39.7865 98.5,43.5C 98.1667,44.1667 97.8333,44.8333 97.5,45.5C 79.2136,37.2228 61.2136,37.5561 43.5,46.5 Z"/></g>
<g><path style="opacity:0.998" fill="#55a67a" d="M 43.5,46.5 C 35.4805,53.5077 26.1472,57.8411 15.5,59.5C 8.9822,58.908 3.64887,56.2414 -0.5,51.5C -0.5,50.1667 -0.5,48.8333 -0.5,47.5C 9.74855,47.2553 19.9152,46.5886 30,45.5C 34.4816,45.4696 38.9816,45.8029 43.5,46.5 Z"/></g>
<g><path style="opacity:1" fill="#4a9f73" d="M 100.5,57.5 C 95.1947,55.9285 90.028,56.2618 85,58.5C 83.6667,57.8333 82.3333,57.1667 81,56.5C 77,57.1667 73,57.8333 69,58.5C 58.3939,58.3485 47.5605,58.3485 36.5,58.5C 34.1987,59.3249 31.8654,59.9916 29.5,60.5C 38.1923,53.4815 47.8589,47.9815 58.5,44C 71.5797,41.8145 83.913,43.8145 95.5,50C 98.1998,51.8567 99.8665,54.3567 100.5,57.5 Z"/></g>
<g><path style="opacity:1" fill="#3b8e61" d="M 100.5,57.5 C 103.016,67.4075 99.0163,72.4075 88.5,72.5C 77.8609,70.7706 67.1943,69.4372 56.5,68.5C 46.6931,69.9331 37.0265,72.0998 27.5,75C 15.6842,77.6777 6.35084,74.1777 -0.5,64.5C -0.5,62.8333 -0.5,61.1667 -0.5,59.5C 2.44689,60.9734 5.44689,62.4734 8.5,64C 10.3333,64.1667 12.1667,64.3333 14,64.5C 19.4158,64.0827 24.5825,62.7494 29.5,60.5C 31.8654,59.9916 34.1987,59.3249 36.5,58.5C 47.5605,58.3485 58.3939,58.3485 69,58.5C 73,57.8333 77,57.1667 81,56.5C 82.3333,57.1667 83.6667,57.8333 85,58.5C 90.028,56.2618 95.1947,55.9285 100.5,57.5 Z"/></g>
<g><path style="opacity:1" fill="#36895c" d="M 49.5,72.5 C 62.4091,72.515 75.2425,73.515 88,75.5C 91.5343,75.3648 95.0343,75.0315 98.5,74.5C 94.9552,91.5385 84.6219,98.3718 67.5,95C 54.516,92.2421 41.516,92.4088 28.5,95.5C 14.7908,94.4863 5.79085,87.4863 1.5,74.5C 2,74.1667 2.5,73.8333 3,73.5C 13.1885,80.0636 24.0218,81.2302 35.5,77C 40.2855,75.4784 44.9522,73.9784 49.5,72.5 Z"/></g>
<g><path style="opacity:1" fill="#3e8d5f" d="M 10.5,94.5 C 10.9169,93.8761 11.5836,93.5427 12.5,93.5C 15.4637,94.9819 18.4637,96.4819 21.5,98C 31.5548,98.6537 41.5548,98.1537 51.5,96.5C 59.658,97.5326 67.8247,98.5326 76,99.5C 79.359,98.9403 82.6924,98.2736 86,97.5C 86.5,97.8333 87,98.1667 87.5,98.5C 84.1581,104.677 79.1581,108.843 72.5,111C 66.2737,110.652 60.2737,109.152 54.5,106.5C 48.9319,109.119 43.2653,111.452 37.5,113.5C 25.8508,110.849 16.8508,104.516 10.5,94.5 Z"/></g>
</svg>
