<?xml version="1.0" encoding="UTF-8"?>
<!DOCTYPE svg PUBLIC "-//W3C//DTD SVG 1.1//EN" "http://www.w3.org/Graphics/SVG/1.1/DTD/svg11.dtd">
<svg xmlns="http://www.w3.org/2000/svg" version="1.1" width="270px" height="293px" style="shape-rendering:geometricPrecision; text-rendering:geometricPrecision; image-rendering:optimizeQuality; fill-rule:evenodd; clip-rule:evenodd" xmlns:xlink="http://www.w3.org/1999/xlink">
<g><path style="opacity:1" fill="#407e6b" d="M 166.5,-0.5 C 168.167,-0.5 169.833,-0.5 171.5,-0.5C 171.5,-0.166667 171.5,0.166667 171.5,0.5C 171.102,16.2054 169.935,31.872 168,47.5C 165.361,53.4063 161.528,58.4063 156.5,62.5C 153.196,62.6777 151.529,64.3443 151.5,67.5C 145.729,69.5906 139.896,71.5906 134,73.5C 132.79,70.497 131.29,67.8304 129.5,65.5C 125.139,34.2285 137.472,12.2285 166.5,-0.5 Z"/></g>
<g><path style="opacity:0.227" fill="#436c5f" d="M 171.5,0.5 C 172.659,11.9927 172.826,23.6593 172,35.5C 171.679,46.4808 167.513,55.6474 159.5,63C 151.759,69.2065 143.093,73.2065 133.5,75C 130.712,72.4768 129.379,69.3101 129.5,65.5C 131.29,67.8304 132.79,70.497 134,73.5C 139.896,71.5906 145.729,69.5906 151.5,67.5C 151.529,64.3443 153.196,62.6777 156.5,62.5C 161.528,58.4063 165.361,53.4063 168,47.5C 169.935,31.872 171.102,16.2054 171.5,0.5 Z"/></g>
<g><path style="opacity:1" fill="#407f6c" d="M 206.5,66.5 C 222.13,70.8221 235.463,78.8221 246.5,90.5C 245.761,90.369 245.094,90.5357 244.5,91C 263.216,111.162 270.382,134.996 266,162.5C 260.198,185.394 251.031,206.227 238.5,225C 238.833,225.333 239.167,225.667 239.5,226C 238.584,226.374 237.75,226.874 237,227.5C 234.893,232.535 232.06,237.035 228.5,241C 228.833,241.333 229.167,241.667 229.5,242C 227.586,243.413 226.253,245.247 225.5,247.5C 224.624,248.251 223.624,248.751 222.5,249C 222.833,249.333 223.167,249.667 223.5,250C 222.167,250.667 220.833,251.333 219.5,252C 219.833,252.333 220.167,252.667 220.5,253C 219.084,256.988 216.584,260.154 213,262.5C 212.51,263.793 212.343,265.127 212.5,266.5C 203.922,277.425 193.588,286.091 181.5,292.5C 178.167,292.5 174.833,292.5 171.5,292.5C 159.347,288.565 146.847,285.565 134,283.5C 121.153,285.565 108.653,288.565 96.5,292.5C 93.5,292.5 90.5,292.5 87.5,292.5C 84.53,291.347 81.8633,289.68 79.5,287.5C 80.2389,287.631 80.9056,287.464 81.5,287C 75.5241,282.364 69.5241,277.697 63.5,273C 36.6465,242.825 16.8131,208.325 4,169.5C 2.5975,162.35 1.5975,155.35 1,148.5C 0.721579,149.416 0.221579,150.082 -0.5,150.5C -0.5,145.833 -0.5,141.167 -0.5,136.5C 5.16952,105.821 22.1695,83.8209 50.5,70.5C 53.289,71.647 55.9556,71.147 58.5,69C 64.4136,67.5212 70.4136,66.6879 76.5,66.5C 82.7766,67.2312 88.7766,68.0645 94.5,69C 109.287,74.553 122.621,82.3863 134.5,92.5C 148.611,80.1014 164.611,71.6014 182.5,67C 190.69,66.7474 198.69,66.5807 206.5,66.5 Z"/></g>
<g><path style="opacity:0.663" fill="#3d6b5d" d="M 206.5,66.5 C 198.69,66.5807 190.69,66.7474 182.5,67C 164.611,71.6014 148.611,80.1014 134.5,92.5C 122.621,82.3863 109.287,74.553 94.5,69C 88.7766,68.0645 82.7766,67.2312 76.5,66.5C 70.4136,66.6879 64.4136,67.5212 58.5,69C 55.9556,71.147 53.289,71.647 50.5,70.5C 64.0721,64.3954 78.0721,63.2287 92.5,67C 108.832,71.2375 122.665,79.4042 134,91.5C 148.207,77.8115 165.041,68.9782 184.5,65C 191.947,64.152 199.28,64.652 206.5,66.5 Z"/></g>
<g><path style="opacity:1" fill="#51b695" d="M 186.5,77.5 C 211.125,77.7287 230.291,88.0621 244,108.5C 253.143,121.41 256.476,135.743 254,151.5C 253.531,157.19 252.864,162.857 252,168.5C 251.692,169.308 251.192,169.975 250.5,170.5C 245.634,151.772 237.8,134.438 227,118.5C 219.232,109.534 210.065,102.367 199.5,97C 187.755,93.0154 175.755,89.8487 163.5,87.5C 165.091,84.7443 167.424,82.911 170.5,82C 175.928,80.3505 181.262,78.8505 186.5,77.5 Z"/></g>
<g><path style="opacity:0.373" fill="#3e6a5c" d="M 79.5,287.5 C 71.7144,283.162 64.8811,277.495 59,270.5C 38.5343,245.913 21.8676,218.913 9,189.5C 4.71023,177.996 1.54356,166.33 -0.5,154.5C -0.5,153.167 -0.5,151.833 -0.5,150.5C 0.221579,150.082 0.721579,149.416 1,148.5C 1.5975,155.35 2.5975,162.35 4,169.5C 16.8131,208.325 36.6465,242.825 63.5,273C 69.5241,277.697 75.5241,282.364 81.5,287C 80.9056,287.464 80.2389,287.631 79.5,287.5 Z"/></g>
<g><path style="opacity:0.627" fill="#3f6c5e" d="M 246.5,90.5 C 259.881,104.929 267.548,121.929 269.5,141.5C 269.5,144.833 269.5,148.167 269.5,151.5C 264.29,180.943 253.457,208.277 237,233.5C 229.355,244.965 221.189,255.965 212.5,266.5C 212.343,265.127 212.51,263.793 213,262.5C 216.584,260.154 219.084,256.988 220.5,253C 220.167,252.667 219.833,252.333 219.5,252C 220.833,251.333 222.167,250.667 223.5,250C 223.167,249.667 222.833,249.333 222.5,249C 223.624,248.751 224.624,248.251 225.5,247.5C 226.253,245.247 227.586,243.413 229.5,242C 229.167,241.667 228.833,241.333 228.5,241C 232.06,237.035 234.893,232.535 237,227.5C 237.75,226.874 238.584,226.374 239.5,226C 239.167,225.667 238.833,225.333 238.5,225C 251.031,206.227 260.198,185.394 266,162.5C 270.382,134.996 263.216,111.162 244.5,91C 245.094,90.5357 245.761,90.369 246.5,90.5 Z"/></g>
</svg>
