<?xml version="1.0" encoding="UTF-8"?>
<!DOCTYPE svg PUBLIC "-//W3C//DTD SVG 1.1//EN" "http://www.w3.org/Graphics/SVG/1.1/DTD/svg11.dtd">
<svg xmlns="http://www.w3.org/2000/svg" version="1.1" width="103px" height="116px" style="shape-rendering:geometricPrecision; text-rendering:geometricPrecision; image-rendering:optimizeQuality; fill-rule:evenodd; clip-rule:evenodd" xmlns:xlink="http://www.w3.org/1999/xlink">
<g><path style="opacity:1" fill="#439466" d="M -0.5,53.5 C -0.5,48.8333 -0.5,44.1667 -0.5,39.5C 3.71376,34.0595 9.38043,31.2262 16.5,31C 25.996,30.7487 35.3293,31.9154 44.5,34.5C 44.5,33.5 44.5,32.5 44.5,31.5C 30.7693,31.7247 20.936,25.7247 15,13.5C 13.5596,9.42221 12.0596,5.42221 10.5,1.5C 22.9963,0.827761 33.163,5.49443 41,15.5C 42.2862,18.4055 43.2862,21.4055 44,24.5C 44.3333,22.1667 44.6667,19.8333 45,17.5C 46.4886,15.6682 48.322,14.8348 50.5,15C 50.9809,20.7569 51.1475,26.5902 51,32.5C 64.3105,20.3803 77.4772,20.547 90.5,33C 101.2,45.6118 99.1997,48.2785 84.5,41C 70.1255,37.7466 56.4588,39.4132 43.5,46C 35.0873,53.2065 25.4206,57.7065 14.5,59.5C 8.90943,58.8678 3.90943,56.8678 -0.5,53.5 Z"/></g>
<g><path style="opacity:1" fill="#419162" d="M -0.5,66.5 C -0.5,64.1667 -0.5,61.8333 -0.5,59.5C 8.92127,65.9136 18.5879,66.0803 28.5,60C 37.4265,53.3691 47.0932,48.0358 57.5,44C 70.5797,41.8145 82.913,43.8145 94.5,50C 101.118,55.9132 102.118,62.5799 97.5,70C 94.456,71.9229 91.1227,72.7562 87.5,72.5C 76.8609,70.7706 66.1943,69.4372 55.5,68.5C 47.538,68.985 39.8713,70.8183 32.5,74C 24.8039,75.8613 17.1373,75.8613 9.5,74C 5.72376,72.0526 2.39043,69.5526 -0.5,66.5 Z"/></g>
<g><path style="opacity:0.999" fill="#35895c" d="M 48.5,72.5 C 61.4091,72.515 74.2425,73.515 87,75.5C 90.5343,75.3648 94.0343,75.0315 97.5,74.5C 93.9552,91.5385 83.6219,98.3718 66.5,95C 53.516,92.2421 40.516,92.4088 27.5,95.5C 13.7908,94.4863 4.79085,87.4863 0.5,74.5C 1,74.1667 1.5,73.8333 2,73.5C 12.1885,80.0636 23.0218,81.2302 34.5,77C 39.2855,75.4784 43.9522,73.9784 48.5,72.5 Z"/></g>
<g><path style="opacity:0.998" fill="#3c8c5f" d="M 9.5,94.5 C 9.91695,93.8761 10.5836,93.5427 11.5,93.5C 14.4637,94.9819 17.4637,96.4819 20.5,98C 30.5548,98.6537 40.5548,98.1537 50.5,96.5C 58.658,97.5326 66.8247,98.5326 75,99.5C 78.359,98.9403 81.6924,98.2736 85,97.5C 85.5,97.8333 86,98.1667 86.5,98.5C 83.1581,104.677 78.1581,108.843 71.5,111C 65.2737,110.652 59.2737,109.152 53.5,106.5C 47.9319,109.119 42.2653,111.452 36.5,113.5C 24.8508,110.849 15.8508,104.516 9.5,94.5 Z"/></g>
</svg>
